<mxfile host="app.diagrams.net" modified="2023-12-11T00:28:28.190Z" agent="Mozilla/5.0 (Macintosh; Intel Mac OS X 10_15_7) AppleWebKit/537.36 (KHTML, like Gecko) Chrome/119.0.0.0 Safari/537.36" etag="Drja0rOaknb1wEo4DnRC" version="22.1.7" type="device">
  <diagram name="Page-1" id="MbMU7Qlz7_NgUQIVqEAa">
    <mxGraphModel dx="1194" dy="660" grid="1" gridSize="10" guides="1" tooltips="1" connect="1" arrows="1" fold="1" page="1" pageScale="1" pageWidth="850" pageHeight="1100" math="0" shadow="0">
      <root>
        <mxCell id="0" />
        <mxCell id="1" parent="0" />
        <mxCell id="FuVghF7y6NCXgB6iri2a-1" value="enigma-nytimes-us_county" style="swimlane;fontStyle=0;childLayout=stackLayout;horizontal=1;startSize=30;horizontalStack=0;resizeParent=1;resizeParentMax=0;resizeLast=0;collapsible=1;marginBottom=0;whiteSpace=wrap;html=1;" vertex="1" parent="1">
          <mxGeometry x="50" y="50" width="280" height="160" as="geometry" />
        </mxCell>
        <mxCell id="FuVghF7y6NCXgB6iri2a-2" value="&lt;div&gt;&amp;nbsp; `date` string,&amp;nbsp;&lt;/div&gt;&lt;div&gt;&amp;nbsp; `county` string,&amp;nbsp;&lt;/div&gt;&lt;div&gt;&amp;nbsp; `state` string,&amp;nbsp;&lt;/div&gt;&lt;div&gt;&amp;nbsp; `fips` bigint,&amp;nbsp;&lt;/div&gt;&lt;div&gt;&amp;nbsp; `cases` bigint,&amp;nbsp;&lt;/div&gt;&lt;div&gt;&amp;nbsp; `deaths` bigint&lt;/div&gt;" style="text;strokeColor=none;fillColor=none;align=left;verticalAlign=middle;spacingLeft=4;spacingRight=4;overflow=hidden;points=[[0,0.5],[1,0.5]];portConstraint=eastwest;rotatable=0;whiteSpace=wrap;html=1;" vertex="1" parent="FuVghF7y6NCXgB6iri2a-1">
          <mxGeometry y="30" width="280" height="130" as="geometry" />
        </mxCell>
        <mxCell id="FuVghF7y6NCXgB6iri2a-5" value="enigma-nytimes-us_states" style="swimlane;fontStyle=0;childLayout=stackLayout;horizontal=1;startSize=30;horizontalStack=0;resizeParent=1;resizeParentMax=0;resizeLast=0;collapsible=1;marginBottom=0;whiteSpace=wrap;html=1;" vertex="1" parent="1">
          <mxGeometry x="450" y="50" width="280" height="160" as="geometry" />
        </mxCell>
        <mxCell id="FuVghF7y6NCXgB6iri2a-6" value="&lt;div&gt;&amp;nbsp; `date` string,&amp;nbsp;&lt;/div&gt;&lt;div&gt;&amp;nbsp; `county` string,&amp;nbsp;&lt;/div&gt;&lt;div&gt;&amp;nbsp; `state` string,&amp;nbsp;&lt;/div&gt;&lt;div&gt;&amp;nbsp; `fips` bigint,&amp;nbsp;&lt;/div&gt;&lt;div&gt;&amp;nbsp; `cases` bigint,&amp;nbsp;&lt;/div&gt;&lt;div&gt;&amp;nbsp; `deaths` bigint&lt;/div&gt;" style="text;strokeColor=none;fillColor=none;align=left;verticalAlign=middle;spacingLeft=4;spacingRight=4;overflow=hidden;points=[[0,0.5],[1,0.5]];portConstraint=eastwest;rotatable=0;whiteSpace=wrap;html=1;" vertex="1" parent="FuVghF7y6NCXgB6iri2a-5">
          <mxGeometry y="30" width="280" height="130" as="geometry" />
        </mxCell>
        <mxCell id="FuVghF7y6NCXgB6iri2a-7" value="enigma_jhu" style="swimlane;fontStyle=0;childLayout=stackLayout;horizontal=1;startSize=30;horizontalStack=0;resizeParent=1;resizeParentMax=0;resizeLast=0;collapsible=1;marginBottom=0;whiteSpace=wrap;html=1;" vertex="1" parent="1">
          <mxGeometry x="50" y="260" width="280" height="240" as="geometry" />
        </mxCell>
        <mxCell id="FuVghF7y6NCXgB6iri2a-8" value="&lt;div&gt;&amp;nbsp; `fips` bigint,&amp;nbsp;&lt;/div&gt;&lt;div&gt;&amp;nbsp; `admin2` string,&amp;nbsp;&lt;/div&gt;&lt;div&gt;&amp;nbsp; `province_state` string,&amp;nbsp;&lt;/div&gt;&lt;div&gt;&amp;nbsp; `country_region` string,&amp;nbsp;&lt;/div&gt;&lt;div&gt;&amp;nbsp; `last_update` string,&amp;nbsp;&lt;/div&gt;&lt;div&gt;&amp;nbsp; `latitude` double,&amp;nbsp;&lt;/div&gt;&lt;div&gt;&amp;nbsp; `longitude` double,&amp;nbsp;&lt;/div&gt;&lt;div&gt;&amp;nbsp; `confirmed` bigint,&amp;nbsp;&lt;/div&gt;&lt;div&gt;&amp;nbsp; `deaths` bigint,&amp;nbsp;&lt;/div&gt;&lt;div&gt;&amp;nbsp; `recovered` bigint,&amp;nbsp;&lt;/div&gt;&lt;div&gt;&amp;nbsp; `active` string,&amp;nbsp;&lt;/div&gt;&lt;div&gt;&amp;nbsp; `combined_key` string&lt;/div&gt;" style="text;strokeColor=none;fillColor=none;align=left;verticalAlign=middle;spacingLeft=4;spacingRight=4;overflow=hidden;points=[[0,0.5],[1,0.5]];portConstraint=eastwest;rotatable=0;whiteSpace=wrap;html=1;" vertex="1" parent="FuVghF7y6NCXgB6iri2a-7">
          <mxGeometry y="30" width="280" height="210" as="geometry" />
        </mxCell>
        <mxCell id="FuVghF7y6NCXgB6iri2a-9" value="rearc-covid-19-testing-states_daily" style="swimlane;fontStyle=0;childLayout=stackLayout;horizontal=1;startSize=30;horizontalStack=0;resizeParent=1;resizeParentMax=0;resizeLast=0;collapsible=1;marginBottom=0;whiteSpace=wrap;html=1;" vertex="1" parent="1">
          <mxGeometry x="450" y="260" width="330" height="870" as="geometry" />
        </mxCell>
        <mxCell id="FuVghF7y6NCXgB6iri2a-10" value="&lt;div&gt;&amp;nbsp; `date` bigint,&amp;nbsp;&lt;/div&gt;&lt;div&gt;&amp;nbsp; `state` string,&amp;nbsp;&lt;/div&gt;&lt;div&gt;&amp;nbsp; `positive` bigint,&amp;nbsp;&lt;/div&gt;&lt;div&gt;&amp;nbsp; `probablecases` bigint,&amp;nbsp;&lt;/div&gt;&lt;div&gt;&amp;nbsp; `negative` bigint,&amp;nbsp;&lt;/div&gt;&lt;div&gt;&amp;nbsp; `pending` bigint,&amp;nbsp;&lt;/div&gt;&lt;div&gt;&amp;nbsp; `totaltestresultssource` string,&amp;nbsp;&lt;/div&gt;&lt;div&gt;&amp;nbsp; `totaltestresults` bigint,&amp;nbsp;&lt;/div&gt;&lt;div&gt;&amp;nbsp; `hospitalizedcurrently` bigint,&amp;nbsp;&lt;/div&gt;&lt;div&gt;&amp;nbsp; `hospitalizedcumulative` bigint,&amp;nbsp;&lt;/div&gt;&lt;div&gt;&amp;nbsp; `inicucurrently` bigint,&amp;nbsp;&lt;/div&gt;&lt;div&gt;&amp;nbsp; `inicucumulative` bigint,&amp;nbsp;&lt;/div&gt;&lt;div&gt;&amp;nbsp; `onventilatorcurrently` bigint,&amp;nbsp;&lt;/div&gt;&lt;div&gt;&amp;nbsp; `onventilatorcumulative` bigint,&amp;nbsp;&lt;/div&gt;&lt;div&gt;&amp;nbsp; `recovered` bigint,&amp;nbsp;&lt;/div&gt;&lt;div&gt;&amp;nbsp; `lastupdateet` string,&amp;nbsp;&lt;/div&gt;&lt;div&gt;&amp;nbsp; `datemodified` string,&amp;nbsp;&lt;/div&gt;&lt;div&gt;&amp;nbsp; `checktimeet` string,&amp;nbsp;&lt;/div&gt;&lt;div&gt;&amp;nbsp; `death` bigint,&amp;nbsp;&lt;/div&gt;&lt;div&gt;&amp;nbsp; `hospitalized` bigint,&amp;nbsp;&lt;/div&gt;&lt;div&gt;&amp;nbsp; `hospitalizeddischarged` bigint,&amp;nbsp;&lt;/div&gt;&lt;div&gt;&amp;nbsp; `datechecked` string,&amp;nbsp;&lt;/div&gt;&lt;div&gt;&amp;nbsp; `totaltestsviral` bigint,&amp;nbsp;&lt;/div&gt;&lt;div&gt;&amp;nbsp; `positivetestsviral` bigint,&amp;nbsp;&lt;/div&gt;&lt;div&gt;&amp;nbsp; `negativetestsviral` bigint,&amp;nbsp;&lt;/div&gt;&lt;div&gt;&amp;nbsp; `positivecasesviral` bigint,&amp;nbsp;&lt;/div&gt;&lt;div&gt;&amp;nbsp; `deathconfirmed` bigint,&amp;nbsp;&lt;/div&gt;&lt;div&gt;&amp;nbsp; `deathprobable` bigint,&amp;nbsp;&lt;/div&gt;&lt;div&gt;&amp;nbsp; `totaltestencountersviral` bigint,&amp;nbsp;&lt;/div&gt;&lt;div&gt;&amp;nbsp; `totaltestspeopleviral` bigint,&amp;nbsp;&lt;/div&gt;&lt;div&gt;&amp;nbsp; `totaltestsantibody` bigint,&amp;nbsp;&lt;/div&gt;&lt;div&gt;&amp;nbsp; `positivetestsantibody` bigint,&amp;nbsp;&lt;/div&gt;&lt;div&gt;&amp;nbsp; `negativetestsantibody` bigint,&amp;nbsp;&lt;/div&gt;&lt;div&gt;&amp;nbsp; `totaltestspeopleantibody` bigint,&amp;nbsp;&lt;/div&gt;&lt;div&gt;&amp;nbsp; `positivetestspeopleantibody` bigint,&amp;nbsp;&lt;/div&gt;&lt;div&gt;&amp;nbsp; `negativetestspeopleantibody` bigint,&amp;nbsp;&lt;/div&gt;&lt;div&gt;&amp;nbsp; `totaltestspeopleantigen` bigint,&amp;nbsp;&lt;/div&gt;&lt;div&gt;&amp;nbsp; `positivetestspeopleantigen` bigint,&amp;nbsp;&lt;/div&gt;&lt;div&gt;&amp;nbsp; `totaltestsantigen` bigint,&amp;nbsp;&lt;/div&gt;&lt;div&gt;&amp;nbsp; `positivetestsantigen` bigint,&amp;nbsp;&lt;/div&gt;&lt;div&gt;&amp;nbsp; `fips` bigint,&amp;nbsp;&lt;/div&gt;&lt;div&gt;&amp;nbsp; `positiveincrease` bigint,&amp;nbsp;&lt;/div&gt;&lt;div&gt;&amp;nbsp; `negativeincrease` bigint,&amp;nbsp;&lt;/div&gt;&lt;div&gt;&amp;nbsp; `total` bigint,&amp;nbsp;&lt;/div&gt;&lt;div&gt;&amp;nbsp; `totaltestresultsincrease` bigint,&amp;nbsp;&lt;/div&gt;&lt;div&gt;&amp;nbsp; `posneg` bigint,&amp;nbsp;&lt;/div&gt;&lt;div&gt;&amp;nbsp; `dataqualitygrade` string,&amp;nbsp;&lt;/div&gt;&lt;div&gt;&amp;nbsp; `deathincrease` bigint,&amp;nbsp;&lt;/div&gt;&lt;div&gt;&amp;nbsp; `hospitalizedincrease` bigint,&amp;nbsp;&lt;/div&gt;&lt;div&gt;&amp;nbsp; `hash` string,&amp;nbsp;&lt;/div&gt;&lt;div&gt;&amp;nbsp; `commercialscore` bigint,&amp;nbsp;&lt;/div&gt;&lt;div&gt;&amp;nbsp; `negativeregularscore` bigint,&amp;nbsp;&lt;/div&gt;&lt;div&gt;&amp;nbsp; `negativescore` bigint,&amp;nbsp;&lt;/div&gt;&lt;div&gt;&amp;nbsp; `positivescore` bigint,&amp;nbsp;&lt;/div&gt;&lt;div&gt;&amp;nbsp; `score` bigint,&amp;nbsp;&lt;/div&gt;&lt;div&gt;&amp;nbsp; `grade` string&lt;/div&gt;" style="text;strokeColor=none;fillColor=none;align=left;verticalAlign=middle;spacingLeft=4;spacingRight=4;overflow=hidden;points=[[0,0.5],[1,0.5]];portConstraint=eastwest;rotatable=0;whiteSpace=wrap;html=1;" vertex="1" parent="FuVghF7y6NCXgB6iri2a-9">
          <mxGeometry y="30" width="330" height="840" as="geometry" />
        </mxCell>
        <mxCell id="FuVghF7y6NCXgB6iri2a-11" value="rearc-covid-19-testing-us_daily" style="swimlane;fontStyle=0;childLayout=stackLayout;horizontal=1;startSize=30;horizontalStack=0;resizeParent=1;resizeParentMax=0;resizeLast=0;collapsible=1;marginBottom=0;whiteSpace=wrap;html=1;" vertex="1" parent="1">
          <mxGeometry x="50" y="560" width="270" height="410" as="geometry" />
        </mxCell>
        <mxCell id="FuVghF7y6NCXgB6iri2a-12" value="&lt;div&gt;&amp;nbsp; `date` bigint,&amp;nbsp;&lt;/div&gt;&lt;div&gt;&amp;nbsp; `states` bigint,&amp;nbsp;&lt;/div&gt;&lt;div&gt;&amp;nbsp; `positive` bigint,&amp;nbsp;&lt;/div&gt;&lt;div&gt;&amp;nbsp; `negative` bigint,&amp;nbsp;&lt;/div&gt;&lt;div&gt;&amp;nbsp; `pending` bigint,&amp;nbsp;&lt;/div&gt;&lt;div&gt;&amp;nbsp; `hospitalizedcurrently` bigint,&amp;nbsp;&lt;/div&gt;&lt;div&gt;&amp;nbsp; `hospitalizedcumulative` bigint,&amp;nbsp;&lt;/div&gt;&lt;div&gt;&amp;nbsp; `inicucurrently` bigint,&amp;nbsp;&lt;/div&gt;&lt;div&gt;&amp;nbsp; `inicucumulative` bigint,&amp;nbsp;&lt;/div&gt;&lt;div&gt;&amp;nbsp; `onventilatorcurrently` bigint,&amp;nbsp;&lt;/div&gt;&lt;div&gt;&amp;nbsp; `onventilatorcumulative` bigint,&amp;nbsp;&lt;/div&gt;&lt;div&gt;&amp;nbsp; `datechecked` string,&amp;nbsp;&lt;/div&gt;&lt;div&gt;&amp;nbsp; `death` bigint,&amp;nbsp;&lt;/div&gt;&lt;div&gt;&amp;nbsp; `hospitalized` bigint,&amp;nbsp;&lt;/div&gt;&lt;div&gt;&amp;nbsp; `totaltestresults` bigint,&amp;nbsp;&lt;/div&gt;&lt;div&gt;&amp;nbsp; `lastmodified` string,&amp;nbsp;&lt;/div&gt;&lt;div&gt;&amp;nbsp; `recovered` string,&amp;nbsp;&lt;/div&gt;&lt;div&gt;&amp;nbsp; `total` bigint,&amp;nbsp;&lt;/div&gt;&lt;div&gt;&amp;nbsp; `posneg` bigint,&amp;nbsp;&lt;/div&gt;&lt;div&gt;&amp;nbsp; `deathincrease` bigint,&amp;nbsp;&lt;/div&gt;&lt;div&gt;&amp;nbsp; `hospitalizedincrease` bigint,&amp;nbsp;&lt;/div&gt;&lt;div&gt;&amp;nbsp; `negativeincrease` bigint,&amp;nbsp;&lt;/div&gt;&lt;div&gt;&amp;nbsp; `positiveincrease` bigint,&amp;nbsp;&lt;/div&gt;&lt;div&gt;&amp;nbsp; `totaltestresultsincrease` bigint,&amp;nbsp;&lt;/div&gt;&lt;div&gt;&amp;nbsp; `hash` string&lt;/div&gt;" style="text;strokeColor=none;fillColor=none;align=left;verticalAlign=middle;spacingLeft=4;spacingRight=4;overflow=hidden;points=[[0,0.5],[1,0.5]];portConstraint=eastwest;rotatable=0;whiteSpace=wrap;html=1;" vertex="1" parent="FuVghF7y6NCXgB6iri2a-11">
          <mxGeometry y="30" width="270" height="380" as="geometry" />
        </mxCell>
        <mxCell id="FuVghF7y6NCXgB6iri2a-13" value="rearc-covid-19-testing-us_total_latest" style="swimlane;fontStyle=0;childLayout=stackLayout;horizontal=1;startSize=30;horizontalStack=0;resizeParent=1;resizeParentMax=0;resizeLast=0;collapsible=1;marginBottom=0;whiteSpace=wrap;html=1;" vertex="1" parent="1">
          <mxGeometry x="50" y="1020" width="270" height="310" as="geometry" />
        </mxCell>
        <mxCell id="FuVghF7y6NCXgB6iri2a-14" value="&lt;div&gt;&amp;nbsp; `positive` bigint,&amp;nbsp;&lt;/div&gt;&lt;div&gt;&amp;nbsp; `negative` bigint,&amp;nbsp;&lt;/div&gt;&lt;div&gt;&amp;nbsp; `pending` bigint,&amp;nbsp;&lt;/div&gt;&lt;div&gt;&amp;nbsp; `hospitalizedcurrently` bigint,&amp;nbsp;&lt;/div&gt;&lt;div&gt;&amp;nbsp; `hospitalizedcumulative` bigint,&amp;nbsp;&lt;/div&gt;&lt;div&gt;&amp;nbsp; `inicucurrently` bigint,&amp;nbsp;&lt;/div&gt;&lt;div&gt;&amp;nbsp; `inicucumulative` bigint,&amp;nbsp;&lt;/div&gt;&lt;div&gt;&amp;nbsp; `onventilatorcurrently` bigint,&amp;nbsp;&lt;/div&gt;&lt;div&gt;&amp;nbsp; `onventilatorcumulative` bigint,&amp;nbsp;&lt;/div&gt;&lt;div&gt;&amp;nbsp; `recovered` bigint,&amp;nbsp;&lt;/div&gt;&lt;div&gt;&amp;nbsp; `hash` string,&amp;nbsp;&lt;/div&gt;&lt;div&gt;&amp;nbsp; `lastmodified` string,&amp;nbsp;&lt;/div&gt;&lt;div&gt;&amp;nbsp; `death` bigint,&amp;nbsp;&lt;/div&gt;&lt;div&gt;&amp;nbsp; `hospitalized` bigint,&amp;nbsp;&lt;/div&gt;&lt;div&gt;&amp;nbsp; `total` bigint,&amp;nbsp;&lt;/div&gt;&lt;div&gt;&amp;nbsp; `totaltestresults` bigint,&amp;nbsp;&lt;/div&gt;&lt;div&gt;&amp;nbsp; `posneg` bigint,&amp;nbsp;&lt;/div&gt;&lt;div&gt;&amp;nbsp; `notes` string&lt;/div&gt;" style="text;strokeColor=none;fillColor=none;align=left;verticalAlign=middle;spacingLeft=4;spacingRight=4;overflow=hidden;points=[[0,0.5],[1,0.5]];portConstraint=eastwest;rotatable=0;whiteSpace=wrap;html=1;" vertex="1" parent="FuVghF7y6NCXgB6iri2a-13">
          <mxGeometry y="30" width="270" height="280" as="geometry" />
        </mxCell>
        <mxCell id="FuVghF7y6NCXgB6iri2a-15" value="rearc-usa-hospital-beds" style="swimlane;fontStyle=0;childLayout=stackLayout;horizontal=1;startSize=30;horizontalStack=0;resizeParent=1;resizeParentMax=0;resizeLast=0;collapsible=1;marginBottom=0;whiteSpace=wrap;html=1;" vertex="1" parent="1">
          <mxGeometry x="450" y="1180" width="270" height="390" as="geometry" />
        </mxCell>
        <mxCell id="FuVghF7y6NCXgB6iri2a-16" value="&lt;div&gt;&amp;nbsp; `objectid` int ,&amp;nbsp;&lt;/div&gt;&lt;div&gt;&amp;nbsp; `hospital_name` string ,&amp;nbsp;&lt;/div&gt;&lt;div&gt;&amp;nbsp; `hospital_type` string ,&amp;nbsp;&lt;/div&gt;&lt;div&gt;&amp;nbsp; `hq_address` string ,&amp;nbsp;&lt;/div&gt;&lt;div&gt;&amp;nbsp; `hq_address1` string ,&amp;nbsp;&lt;/div&gt;&lt;div&gt;&amp;nbsp; `hq_city` string ,&amp;nbsp;&lt;/div&gt;&lt;div&gt;&amp;nbsp; `hq_state` string ,&amp;nbsp;&lt;/div&gt;&lt;div&gt;&amp;nbsp; `hq_zip_code` string ,&amp;nbsp;&lt;/div&gt;&lt;div&gt;&amp;nbsp; `county_name` string ,&amp;nbsp;&lt;/div&gt;&lt;div&gt;&amp;nbsp; `state_name` string ,&amp;nbsp;&lt;/div&gt;&lt;div&gt;&amp;nbsp; `state_fips` string ,&amp;nbsp;&lt;/div&gt;&lt;div&gt;&amp;nbsp; `cnty_fips` string ,&amp;nbsp;&lt;/div&gt;&lt;div&gt;&amp;nbsp; `fips` string ,&amp;nbsp;&lt;/div&gt;&lt;div&gt;&amp;nbsp; `num_licensed_beds` int ,&amp;nbsp;&lt;/div&gt;&lt;div&gt;&amp;nbsp; `num_staffed_beds` int ,&amp;nbsp;&lt;/div&gt;&lt;div&gt;&amp;nbsp; `num_icu_beds` int ,&amp;nbsp;&lt;/div&gt;&lt;div&gt;&amp;nbsp; `adult_icu_beds` int ,&amp;nbsp;&lt;/div&gt;&lt;div&gt;&amp;nbsp; `pedi_icu_beds` double ,&amp;nbsp;&lt;/div&gt;&lt;div&gt;&amp;nbsp; `bed_utilization` double ,&amp;nbsp;&lt;/div&gt;&lt;div&gt;&amp;nbsp; `avg_ventilator_usage` double ,&amp;nbsp;&lt;/div&gt;&lt;div&gt;&amp;nbsp; `potential_increase_in_bed_capac` int ,&amp;nbsp;&lt;/div&gt;&lt;div&gt;&amp;nbsp; `latitude` double ,&amp;nbsp;&lt;/div&gt;&lt;div&gt;&amp;nbsp; `longtitude` double&amp;nbsp;&lt;/div&gt;" style="text;strokeColor=none;fillColor=none;align=left;verticalAlign=middle;spacingLeft=4;spacingRight=4;overflow=hidden;points=[[0,0.5],[1,0.5]];portConstraint=eastwest;rotatable=0;whiteSpace=wrap;html=1;" vertex="1" parent="FuVghF7y6NCXgB6iri2a-15">
          <mxGeometry y="30" width="270" height="360" as="geometry" />
        </mxCell>
        <mxCell id="FuVghF7y6NCXgB6iri2a-17" value="static-datasets-countrycode" style="swimlane;fontStyle=0;childLayout=stackLayout;horizontal=1;startSize=30;horizontalStack=0;resizeParent=1;resizeParentMax=0;resizeLast=0;collapsible=1;marginBottom=0;whiteSpace=wrap;html=1;" vertex="1" parent="1">
          <mxGeometry x="50" y="1400" width="270" height="170" as="geometry" />
        </mxCell>
        <mxCell id="FuVghF7y6NCXgB6iri2a-18" value="&lt;div&gt;&amp;nbsp; `country` string,&amp;nbsp;&lt;/div&gt;&lt;div&gt;&amp;nbsp; `alpha-2 code` string,&amp;nbsp;&lt;/div&gt;&lt;div&gt;&amp;nbsp; `alpha-3 code` string,&amp;nbsp;&lt;/div&gt;&lt;div&gt;&amp;nbsp; `numeric code` bigint,&amp;nbsp;&lt;/div&gt;&lt;div&gt;&amp;nbsp; `latitude` double,&amp;nbsp;&lt;/div&gt;&lt;div&gt;&amp;nbsp; `longitude` double&lt;/div&gt;" style="text;strokeColor=none;fillColor=none;align=left;verticalAlign=middle;spacingLeft=4;spacingRight=4;overflow=hidden;points=[[0,0.5],[1,0.5]];portConstraint=eastwest;rotatable=0;whiteSpace=wrap;html=1;" vertex="1" parent="FuVghF7y6NCXgB6iri2a-17">
          <mxGeometry y="30" width="270" height="140" as="geometry" />
        </mxCell>
        <mxCell id="FuVghF7y6NCXgB6iri2a-19" value="static-datasets-countypopulation" style="swimlane;fontStyle=0;childLayout=stackLayout;horizontal=1;startSize=30;horizontalStack=0;resizeParent=1;resizeParentMax=0;resizeLast=0;collapsible=1;marginBottom=0;whiteSpace=wrap;html=1;" vertex="1" parent="1">
          <mxGeometry x="50" y="1630" width="270" height="170" as="geometry" />
        </mxCell>
        <mxCell id="FuVghF7y6NCXgB6iri2a-20" value="&lt;div&gt;&amp;nbsp; `id` string,&amp;nbsp;&lt;/div&gt;&lt;div&gt;&amp;nbsp; `id2` bigint,&amp;nbsp;&lt;/div&gt;&lt;div&gt;&amp;nbsp; `county` string,&amp;nbsp;&lt;/div&gt;&lt;div&gt;&amp;nbsp; `state` string,&amp;nbsp;&lt;/div&gt;&lt;div&gt;&amp;nbsp; `population estimate 2018` bigint&lt;/div&gt;" style="text;strokeColor=none;fillColor=none;align=left;verticalAlign=middle;spacingLeft=4;spacingRight=4;overflow=hidden;points=[[0,0.5],[1,0.5]];portConstraint=eastwest;rotatable=0;whiteSpace=wrap;html=1;" vertex="1" parent="FuVghF7y6NCXgB6iri2a-19">
          <mxGeometry y="30" width="270" height="140" as="geometry" />
        </mxCell>
        <mxCell id="FuVghF7y6NCXgB6iri2a-21" value="static-datasets-state_abv" style="swimlane;fontStyle=0;childLayout=stackLayout;horizontal=1;startSize=30;horizontalStack=0;resizeParent=1;resizeParentMax=0;resizeLast=0;collapsible=1;marginBottom=0;whiteSpace=wrap;html=1;" vertex="1" parent="1">
          <mxGeometry x="455" y="1630" width="270" height="80" as="geometry" />
        </mxCell>
        <mxCell id="FuVghF7y6NCXgB6iri2a-22" value="&lt;div&gt;&amp;nbsp; `state` string,&amp;nbsp;&lt;/div&gt;&lt;div&gt;&amp;nbsp; `abbreviation` string&lt;/div&gt;" style="text;strokeColor=none;fillColor=none;align=left;verticalAlign=middle;spacingLeft=4;spacingRight=4;overflow=hidden;points=[[0,0.5],[1,0.5]];portConstraint=eastwest;rotatable=0;whiteSpace=wrap;html=1;" vertex="1" parent="FuVghF7y6NCXgB6iri2a-21">
          <mxGeometry y="30" width="270" height="50" as="geometry" />
        </mxCell>
      </root>
    </mxGraphModel>
  </diagram>
</mxfile>
